<svg width="56" height="52" viewBox="0 0 56 52" fill="none" xmlns="http://www.w3.org/2000/svg">
<path d="M12.103 21.9402C13.1134 20.2502 14.0025 18.4729 15.4137 17.0717C15.9147 16.5743 16.674 16.0867 17.3862 15.9871C17.7446 15.9358 17.6488 15.9779 17.7339 16.2025C17.9103 16.684 17.7723 17.3278 17.7097 17.8192C17.5613 18.9915 17.4426 20.1806 17.7997 21.3245C18.2188 22.6691 19.5971 23.307 20.9126 23.2229C23.1383 23.0806 24.989 21.03 26.2678 19.4023C27.3825 17.981 28.4285 16.2193 30.1498 15.4542C30.4335 15.3295 30.7805 15.2373 30.9827 15.2649C31.7832 15.374 31.1516 15.3039 31.1803 15.3271C31.2789 15.5299 31.2559 15.7567 31.2303 16.003C31.1723 16.5158 31.078 17.0245 30.9885 17.5308C30.5867 19.8056 31.1998 22.3742 33.8213 22.8453C36.2192 23.276 38.327 21.4309 39.6813 19.6806C40.3488 18.818 40.9355 17.9035 41.6611 17.0857C41.9495 16.7638 42.2039 16.5538 42.586 16.3224C42.3508 16.4643 42.9509 16.221 42.9323 16.2287C42.7431 16.2717 42.7679 16.2774 43.0081 16.248C43.5749 16.3365 42.813 16.1128 43.2797 16.3452C43.5313 16.6342 43.5578 16.8375 43.6089 17.35C43.7474 18.7819 43.4187 20.1032 43.8259 21.5232C44.4474 23.6878 47.6641 22.8698 47.5829 20.7505C47.4898 18.2347 48.0927 15.4894 46.1054 13.5114C44.4082 11.8198 41.8094 11.9532 39.9293 13.2541C38.1191 14.5055 37.1889 16.6223 35.6816 18.1661C35.5072 18.3469 35.0537 18.676 34.9448 18.73C34.9269 18.739 34.2722 18.933 34.658 18.8653C34.1257 18.9593 34.9398 18.9613 34.4449 18.8723C34.5565 18.8921 34.9197 19.2012 34.6041 18.9266C34.7289 19.0361 34.8369 19.3245 34.7186 18.9356C34.7555 18.6395 34.7986 18.3674 34.8371 18.0956C35.1548 15.8644 35.1453 13.5412 32.9688 12.2701C30.876 11.0506 28.4418 12.0932 26.7627 13.5235C25.1452 14.9006 24.0999 16.7381 22.7084 18.3172C22.1495 18.9545 21.467 19.5699 20.6565 19.8514C20.5308 19.895 20.2725 19.7675 20.7326 19.9271C20.9281 19.9965 20.9008 20.1385 20.8667 19.8846C20.7953 19.3424 20.8682 18.738 20.9146 18.197C21.0608 16.5489 21.0158 14.6282 19.5851 13.5128C18.1756 12.413 16.3004 12.8424 14.8645 13.6433C12.2076 15.1213 10.8308 18.062 9.66282 20.727C8.95036 22.3543 11.2088 23.4368 12.103 21.9402Z" fill="white"/>
<path d="M10.2219 36.5167C11.6736 34.6178 12.6796 32.3788 14.6683 30.9381C14.8785 30.7875 15.0335 30.7226 15.2715 30.6361C15.4263 30.579 15.5023 30.7106 15.2498 30.5346C15.4038 30.6413 15.4421 30.9209 15.4704 31.114C15.5911 31.9311 15.4708 32.7919 15.4976 33.6171C15.5698 35.8755 17.0172 38.0252 19.5344 37.6757C22.1552 37.3111 23.8997 34.8367 25.5414 33.0267C26.3624 32.1262 27.1182 31.1926 27.9996 30.3512C28.3001 30.0637 28.6444 29.8573 29.0333 29.7282C28.9518 29.7552 28.8343 29.7276 29.1314 29.7916C29.0549 29.7897 28.9909 29.7588 28.943 29.6972C29.0963 29.8427 29.1206 29.8502 29.0201 29.7189C29.3325 30.0758 29.2798 30.0939 29.406 30.4645C29.5407 30.8578 29.5099 30.8017 29.5531 31.3033C29.6618 32.5369 29.4698 33.687 30.0941 34.8323C31.4635 37.3456 34.604 36.3823 36.3054 34.8627C37.077 34.1724 37.6396 33.3256 38.2059 32.4691C38.6245 31.8394 39.2987 30.8498 39.659 30.5432C40.1254 30.1431 40.5256 29.9243 40.9356 29.7677C41.0566 29.724 41.1773 29.6851 41.3009 29.6538C40.9638 29.7499 41.5018 29.6471 41.5416 29.6441C42.0318 29.7198 41.339 29.5117 41.7512 29.7325C41.4568 29.5745 41.6701 29.7146 41.6701 29.7146C41.8558 30.1109 41.9039 30.525 41.9475 30.9524C42.0468 31.999 41.9423 33.0847 41.9013 34.1337C41.8592 35.1942 43.0025 36.0091 43.9747 35.9435C45.13 35.8646 45.7303 34.9284 45.785 33.8684C45.9071 31.4746 46.0069 28.4502 43.9248 26.7932C42.2086 25.4285 39.9429 25.9976 38.2388 27.0461C36.5244 28.1006 35.6793 29.8741 34.5176 31.43C34.2876 31.7384 34.0223 32.0655 33.7234 32.3104C33.5365 32.4614 33.3272 32.5869 33.12 32.7081C33.2672 32.6216 32.7657 32.7956 33.0367 32.7423C32.7397 32.8014 32.8249 32.7568 32.9857 32.8195C33.212 32.9074 33.2473 33.1472 33.2168 32.937C33.1364 32.3845 33.1972 31.7936 33.1805 31.2367C33.126 29.3744 32.28 27.2425 30.4726 26.4585C27.8949 25.3433 25.651 27.4594 24.0607 29.2382C23.2328 30.1642 22.4441 31.1261 21.6364 32.0712C20.9421 32.8847 20.0999 33.7805 19.0722 34.1552C19.2854 34.4231 19.068 33.9267 19.0601 33.8943C19.1422 34.1964 19.0425 33.5811 19.0425 33.5811C18.9671 32.7332 19.0748 31.8797 19.0006 31.0311C18.8817 29.6972 18.2878 28.4312 17.1535 27.6878C15.7633 26.7733 14.0436 27.2881 12.7802 28.1558C10.4833 29.7375 8.57037 32.7015 7.97108 35.4021C7.69673 36.6336 9.41918 37.5637 10.2219 36.5167Z" fill="white"/>
</svg>
