<svg width="36" height="26" viewBox="0 0 36 26" fill="none" xmlns="http://www.w3.org/2000/svg">
<path d="M2.53086 6.98005C2.76286 6.51339 2.81889 6.00272 3.06022 5.54672C3.32555 5.04539 3.76155 4.60272 4.16022 4.20805C4.85355 3.52138 5.77619 3.21471 6.73486 3.23871C8.93086 3.29605 10.4802 6.00804 11.3375 7.69604C13.9895 12.916 15.0922 18.8814 16.3122 24.5521C16.4949 25.4027 17.4735 25.888 18.2762 25.6667C19.1935 25.416 19.5122 24.564 19.3895 23.7027C18.8735 20.0494 17.9229 16.3907 16.8256 12.868C15.8762 9.82004 14.7736 6.56537 12.9269 3.93071C11.1029 1.33071 8.39753 -0.451956 5.14153 0.168044C3.76287 0.429377 2.48288 1.30937 1.55755 2.33204C0.546883 3.45471 -0.603807 5.52805 0.36686 6.98005C0.85086 7.70672 2.08819 7.87872 2.53086 6.98005Z" fill="white"/>
<path d="M35.3363 6.98005C36.2749 5.57339 35.2189 3.67471 34.3109 2.53471C33.3736 1.35738 32.0203 0.521376 30.5603 0.168043C27.3203 -0.615957 24.5936 1.46271 22.7749 3.93071C20.8803 6.50537 19.8323 9.85738 18.8763 12.868C17.7603 16.3774 16.8283 20.056 16.3123 23.7027C16.1896 24.564 16.5083 25.416 17.4269 25.6667C18.2283 25.888 19.2069 25.4027 19.3896 24.5521C20.6176 18.8507 21.7723 12.9747 24.3656 7.69604C25.1869 6.02137 26.6603 3.52403 28.7323 3.25603C29.6776 3.13336 30.6229 3.43071 31.3549 4.03871C31.7869 4.39605 32.1776 4.85739 32.4976 5.31472C32.8549 5.82139 32.9003 6.43205 33.1709 6.98005C33.6136 7.87872 34.8509 7.70672 35.3363 6.98005Z" fill="white"/>
</svg>
