<svg width="32" height="27" viewBox="0 0 32 27" fill="none" xmlns="http://www.w3.org/2000/svg">
<path d="M6.93581 5.85878C11.4891 4.59611 15.9918 2.12276 20.8212 3.74276C24.2505 4.8921 27.7878 7.63477 28.4331 11.3854C28.7718 13.3508 27.8038 15.2121 25.9745 15.9988C24.1665 16.7761 22.0825 16.3321 20.6625 15.0228C19.2105 13.6841 19.6332 11.5788 20.7252 10.1814C21.3585 9.37343 22.2411 8.91075 23.2025 8.59742C24.2078 8.26808 25.1678 8.5441 26.1118 8.90943C27.2145 9.33476 27.8038 10.1028 28.6585 10.8668C29.5625 11.6748 31.2105 10.8108 30.9718 9.58944C30.5158 7.24277 28.3078 6.18544 26.2225 5.52278C23.8425 4.76411 21.1358 5.50011 19.2518 7.08811C17.3878 8.65744 16.2531 11.1294 16.5318 13.5788C16.7905 15.8521 18.4025 17.6521 20.3398 18.7108C22.4051 19.8388 25.0052 19.8201 27.1478 18.9468C29.4065 18.0241 30.8758 16.0468 31.4345 13.7201C32.4558 9.48011 29.2732 5.26542 25.9878 3.00409C23.1812 1.06942 19.9905 0.1481 16.5865 0.2801C12.8678 0.425434 8.92916 1.83876 5.75583 3.73476C5.29049 4.01342 5.15448 4.69876 5.34515 5.17209C5.61182 5.84276 6.29181 6.03611 6.93581 5.85878Z" fill="white"/>
<path d="M25.4266 21.0388C20.8732 22.3015 16.3719 24.7748 11.5399 23.1522C8.11188 22.0028 4.57323 19.2615 3.92923 15.5108C3.59057 13.5455 4.55989 11.6868 6.38923 10.8975C8.19589 10.1202 10.2799 10.5642 11.6999 11.8735C13.1519 13.2135 12.7292 15.3175 11.6359 16.7135C11.0039 17.5255 10.1212 17.9855 9.1599 18.2988C8.1519 18.6282 7.19455 18.3522 6.25055 17.9868C5.14922 17.5615 4.55854 16.7935 3.70387 16.0295C2.79854 15.2215 1.15189 16.0855 1.39056 17.3082C1.84789 19.6548 4.05321 20.7108 6.13854 21.3748C8.51854 22.1322 11.2252 21.3948 13.1105 19.8082C14.9745 18.2402 16.1105 15.7668 15.8305 13.3188C15.5719 11.0442 13.9599 9.24417 12.0212 8.18551C9.95722 7.05617 7.35722 7.07751 5.21455 7.94951C2.95588 8.87217 1.48523 10.8495 0.926563 13.1762C-0.0947706 17.4188 3.09054 21.6295 6.37321 23.8922C9.18121 25.8282 12.3719 26.7482 15.7772 26.6162C19.4945 26.4708 23.4319 25.0575 26.6052 23.1615C27.0719 22.8842 27.2079 22.1975 27.0172 21.7228C26.7506 21.0535 26.0692 20.8602 25.4266 21.0388Z" fill="white"/>
</svg>
