<svg width="27" height="38" viewBox="0 0 27 38" fill="none" xmlns="http://www.w3.org/2000/svg">
<path d="M2.69001 6.13302C3.10201 5.56888 3.38736 5.00901 3.94069 4.56741C4.03269 4.49501 4.24068 4.43609 4.36068 4.42729C4.62868 4.42729 4.69267 4.43088 4.55133 4.43448C4.346 4.25021 4.78869 4.96475 4.71136 4.75635C4.82469 5.06008 4.89 5.38408 4.95534 5.70168C5.12334 6.53608 5.23401 7.39022 5.36201 8.23302C6.03401 12.6298 5.47133 17.1836 5.54733 21.6096C6.64333 21.4621 7.73668 21.3137 8.83135 21.1653C8.78068 20.8205 8.56068 20.5481 8.33402 20.3007C7.72202 19.6287 6.59536 19.6793 5.97536 20.3007C5.28869 20.9841 5.39402 21.9621 5.97536 22.6585C5.99402 22.6809 6.01135 22.7027 6.03135 22.7267C5.86735 22.3319 5.70336 21.9387 5.54069 21.5445C5.76336 23.7174 8.83134 23.8049 8.89134 21.6096C8.97001 18.7694 9.10602 15.9361 9.13402 13.094C9.15935 10.3336 8.87666 7.66169 8.446 4.93875C8.11133 2.81529 6.88869 1.07515 4.61003 0.93448C2.16336 0.78408 0.172689 3.12981 0.0740224 5.42408C0.00602236 6.94501 1.93001 7.16888 2.69001 6.13302Z" fill="white"/>
<path d="M8.67258 9.73831C9.43391 8.17577 9.92324 6.07844 11.4352 5.03617C12.9499 3.99711 14.3632 5.03151 14.9512 6.54818C15.8659 8.90391 15.6219 11.6351 15.5579 14.1044C15.4939 16.6003 15.3566 19.069 15.7939 21.5414C16.1419 23.5003 16.9006 25.4284 18.7432 26.4222C20.8312 27.5455 23.3326 26.8304 24.8352 25.0908C26.3526 23.332 26.6992 20.7982 25.1646 18.9398C23.9966 17.5284 21.9299 16.9544 20.1579 17.1774C18.1459 17.4284 16.3792 18.5742 15.3352 20.3164C14.1419 22.3034 14.4419 24.7627 14.2846 26.9736C14.1539 28.807 13.5806 30.4632 12.2899 31.7966C11.7286 32.3763 11.0259 32.8935 10.2752 33.206C9.31391 33.6055 8.44056 33.6118 7.41656 33.6012C5.12189 33.5768 5.12189 37.1824 7.41656 37.1584C10.0286 37.1318 12.1592 36.4744 14.2072 34.8198C16.1219 33.2722 17.2566 30.9648 17.6472 28.5675C17.8419 27.3747 17.8992 26.1722 17.9326 24.9664C17.9632 23.956 17.9112 22.708 18.5739 21.858C19.0912 21.193 19.8112 20.8008 20.6299 20.655C20.3099 20.7122 20.9166 20.6602 20.9166 20.6602C20.9019 20.6602 21.5219 20.7028 21.2192 20.6602C21.7152 20.7288 21.8966 20.7966 22.2259 20.9779C22.4152 21.082 22.5192 21.1826 22.6272 21.3544C22.8526 21.7148 22.6086 21.208 22.7206 21.6342C22.6592 21.3987 22.7192 22.0222 22.7206 22.0012C22.7072 22.7555 21.9779 23.344 21.3819 23.6523C19.8592 24.444 19.0486 22.194 18.8246 21.1602C18.6366 20.3034 18.7686 19.3284 18.7619 18.458C18.7512 17.0064 18.7979 15.556 18.8512 14.1044C18.9472 11.4632 18.9912 8.77218 18.2952 6.19924C17.4352 3.02738 14.4206 0.379906 11.0299 1.63937C7.99124 2.76697 6.56591 6.06124 6.24191 9.07937C6.10325 10.3675 8.12058 10.8684 8.67258 9.73831Z" fill="white"/>
</svg>
