<svg width="27" height="44" viewBox="0 0 27 44" fill="none" xmlns="http://www.w3.org/2000/svg">
<path d="M14.8548 11.7205C14.5695 11.3272 14.2828 10.6925 13.9242 10.3698C13.5388 10.0245 13.1322 9.70051 12.7002 9.40984C11.8388 8.82718 10.8228 8.52583 9.80017 8.39383C7.83617 8.13916 5.66151 8.58715 3.98551 9.64982C2.13484 10.8232 0.82017 12.8098 0.465504 14.9712C0.105504 17.1845 0.716175 19.1738 2.03617 20.9445C4.15217 23.7845 8.53483 24.7965 11.7775 23.5925C15.9335 22.0485 17.6642 17.3472 16.0842 13.2938C15.7935 12.5525 15.3948 11.8885 14.9108 11.2592C14.3548 10.5352 13.7668 10.1658 12.9335 9.81515C11.8788 9.37382 10.9588 10.7725 11.4655 11.6578C11.8735 12.3712 12.3882 13.0058 12.7828 13.7272C13.1535 14.4112 13.2588 15.1978 13.2802 15.9632C13.3228 17.4472 12.8122 18.6858 11.8975 19.5432C11.1988 20.1978 10.0402 20.5458 8.96284 20.5605C7.7055 20.5778 6.66951 20.2205 5.62018 19.5165C4.75218 18.9298 4.1455 17.9338 3.91217 16.6952C3.65217 15.3058 4.1975 13.8472 5.1495 12.8405C6.1775 11.7525 7.6735 11.3992 9.12817 11.4178C9.6935 11.4245 10.2735 11.5552 10.7922 11.7832C11.1348 11.9325 11.4522 12.1352 11.7628 12.3432C12.1682 12.6152 12.5708 12.8032 12.9322 13.1352C13.8762 13.9992 15.6922 12.8778 14.8548 11.7205Z" fill="white"/>
<path d="M16.1321 13.7138C15.8934 11.8471 15.1241 10.0898 14.8401 8.22311C14.7787 7.81111 14.7387 7.19513 14.7561 6.5458C14.7587 6.41113 14.8481 5.59778 14.7827 6.03245C14.8227 5.75512 14.8921 5.4818 14.9747 5.21246C15.0067 5.1058 15.0481 5.00312 15.0867 4.90045C15.1747 4.75512 15.2854 4.59245 15.4001 4.43512C15.0387 4.92579 15.4214 4.44578 15.5494 4.33245C15.6507 4.24178 15.9254 4.06711 15.4534 4.39378C15.5494 4.32711 15.6507 4.27243 15.7521 4.21777C16.1254 4.02177 15.3694 4.31511 15.9001 4.16044C16.0481 4.11911 16.6654 4.04445 16.0734 4.10045C16.2587 4.08312 16.4481 4.08578 16.6321 4.09378C16.7281 4.09911 16.8241 4.10977 16.9201 4.12177C17.1707 4.18711 17.3694 4.24713 17.5654 4.3138C17.6681 4.34846 17.7681 4.38711 17.8694 4.42711C18.3201 4.64844 18.7547 4.92711 19.1667 5.22978C19.2894 5.32845 19.3854 5.41512 19.4814 5.50045C19.6774 5.67512 19.8654 5.86177 20.0494 6.05244C20.2361 6.24977 20.4147 6.45912 20.5894 6.66979C20.6787 6.77779 20.7627 6.88845 20.8494 7.00045C20.5587 6.62178 20.9321 7.13379 20.9827 7.20579C22.5027 9.47912 22.9867 11.8591 22.8041 14.6418C22.6481 17.0298 21.8081 19.5671 20.3001 21.6151C18.4267 24.1591 15.6587 25.9098 12.9334 27.4018C9.67207 29.1858 5.74006 30.7991 3.78006 34.1458C2.93206 35.6005 2.6574 37.2058 2.84673 38.8591C3.08406 40.9351 4.98541 42.2071 6.62407 43.1631C8.72541 44.3884 10.6854 41.0284 8.53607 39.9271C7.6414 39.4711 6.6134 39.0711 6.4174 37.9898C6.2694 37.1804 6.78141 36.2404 7.19207 35.5858C8.49607 33.5204 11.4241 32.3791 13.5134 31.2271C17.7787 28.8764 22.0027 26.2098 24.4387 21.8271C27.5614 16.2098 27.0574 8.34846 22.5774 3.60846C20.2147 1.10712 16.3174 -0.566233 13.2654 1.71643C11.7921 2.8191 11.3267 4.90578 11.2894 6.63245C11.2294 9.45378 12.0881 12.7591 13.7641 15.0218C14.1281 15.5124 14.9507 15.5445 15.4427 15.2765C16.0414 14.9498 16.2147 14.3471 16.1321 13.7138Z" fill="white"/>
</svg>
