<svg width="39" height="20" viewBox="0 0 39 20" fill="none" xmlns="http://www.w3.org/2000/svg">
<path d="M0.957149 12.7437C0.438483 12.5676 1.39982 12.8676 1.59716 12.8957C2.06782 12.9676 2.5305 13.0093 3.00516 13.0307C4.13983 13.0823 5.2705 13.1025 6.40383 13.1156C7.5305 13.1291 11.1651 13.2093 11.2878 13.2156C11.8025 13.2427 10.8425 13.0733 10.7425 13.0249C11.5305 13.3957 12.4558 13.252 12.9252 12.4531C13.3345 11.7547 13.1411 10.6395 12.3545 10.2692C11.7065 9.96506 10.9891 10.0249 10.2891 10.0317C9.16782 10.0384 8.04782 10.0651 6.92515 10.0905C5.71048 10.1145 4.49981 10.1411 3.28648 10.2129C2.75048 10.2479 2.22248 10.2785 1.69182 10.3676C1.55048 10.3916 1.40649 10.4156 1.26516 10.4395C1.09449 10.4692 0.474483 10.7249 0.95715 10.5504C-0.108184 10.9359 -0.140184 12.3717 0.957149 12.7437Z" fill="white"/>
<path d="M13.1212 12.0009C13.2665 11.0717 12.9919 10.1358 13.1559 9.19317C13.3372 8.15037 13.8172 7.22904 14.4012 6.36077C15.5652 4.63171 17.4599 3.5077 19.5385 3.33837C20.4439 3.26504 21.2065 2.63691 21.2065 1.67171C21.2065 0.814505 20.4452 -0.063093 19.5385 0.00357356C16.2252 0.251973 13.6332 1.83944 11.7039 4.48797C10.8852 5.61184 10.2932 6.96757 10.0225 8.32744C9.75186 9.68797 9.71986 11.577 10.7879 12.6156C11.4705 13.2822 12.9532 13.0822 13.1212 12.0009Z" fill="white"/>
<path d="M38.1186 10.5504C38.6333 10.7359 37.6746 10.4171 37.4799 10.3838C36.9639 10.2958 36.452 10.2572 35.932 10.2223C34.728 10.1479 33.5293 10.1187 32.3253 10.0916C31.1853 10.0666 30.0466 10.0427 28.9066 10.0318C28.1746 10.0239 27.3986 9.95043 26.7226 10.2692C25.936 10.6395 25.74 11.7547 26.1493 12.4531C26.6173 13.252 27.5466 13.3958 28.3333 13.025C28.3 13.0395 27.3093 13.2479 27.7306 13.2182C27.8453 13.2104 27.96 13.2062 28.0746 13.2026C28.4373 13.188 34.7853 13.0906 35.932 13.0359C36.4226 13.013 36.8973 12.9854 37.3853 12.9119C37.5266 12.889 37.668 12.8676 37.8106 12.8479C37.9773 12.8198 38.608 12.5786 38.1186 12.7438C39.2173 12.3703 39.1853 10.9343 38.1186 10.5504Z" fill="white"/>
<path d="M28.2878 12.6156C29.3851 11.5478 29.2771 9.71184 29.0544 8.32744C28.8318 6.95824 28.1558 5.61971 27.3731 4.48797C25.5225 1.81291 22.7865 0.24624 19.5385 0.00357286C18.6305 -0.0630939 17.8705 0.814504 17.8705 1.6717C17.8705 2.6369 18.6318 3.26504 19.5385 3.33837C21.6598 3.5129 23.4571 4.64624 24.6745 6.36077C25.2371 7.15464 25.6331 8.0093 25.8678 8.95197C26.1225 9.9717 25.7984 10.9905 25.9544 12.0009C26.1224 13.0822 27.6064 13.2822 28.2878 12.6156Z" fill="white"/>
<path d="M0.84909 19.076C2.50376 19.5676 4.39044 19.3906 6.09977 19.3718C8.88244 19.3452 35.2558 18.901 36.8891 18.8942C39.1838 18.8864 39.1851 15.3266 36.8891 15.3359C33.3198 15.349 29.7438 15.5515 26.1758 15.6718C20.1318 15.8744 5.21044 16.3556 3.79577 16.4266C2.79577 16.476 1.81576 16.4974 0.849091 16.7864C-0.281576 17.1239 -0.284243 18.7384 0.84909 19.076Z" fill="white"/>
</svg>
