<svg width="49" height="52" viewBox="0 0 49 52" fill="none" xmlns="http://www.w3.org/2000/svg">
<path d="M15.5465 8.38571C15.806 9.7549 16.2509 11.1203 16.5866 12.4749C16.9445 13.9163 17.3542 15.3399 17.6525 16.7993C18.2405 19.6822 18.4322 22.6888 18.5205 25.6266C18.6089 28.5828 18.5049 31.5496 17.9831 34.4615C17.7327 35.8658 17.3771 37.2416 16.9637 38.6057C16.7675 39.2576 16.54 39.9022 16.2886 40.5376C15.9837 41.3192 15.6065 41.9991 15.6832 42.8716C15.8023 44.2306 17.0553 44.9724 18.295 44.3718C19.7852 43.6495 20.2868 41.7113 20.7841 40.2633C21.2719 38.8344 21.6566 37.3707 21.9227 35.8831C22.5112 32.6079 22.6451 29.2719 22.4985 25.9525C22.3539 22.6883 22.0012 19.3285 21.0828 16.1886C20.6347 14.6581 20.0749 13.1556 19.4846 11.674C18.8968 10.2015 18.3564 8.55616 17.1806 7.43542C16.4377 6.72478 15.3694 7.44439 15.5465 8.38571Z" fill="white"/>
<path d="M31.5514 7.43536C30.4483 8.4874 29.9823 9.95045 29.3997 11.3169C28.7658 12.8015 28.2263 14.336 27.7448 15.8793C26.7662 19.017 26.4557 22.3574 26.2523 25.627C26.0452 28.9485 26.2305 32.2809 26.7563 35.5621C26.9962 37.0693 27.3934 38.5333 27.8587 39.986C28.3442 41.5025 28.8903 43.6207 30.4372 44.3706C31.6782 44.9732 32.9306 44.2306 33.0504 42.871C33.1664 41.5369 32.2589 40.1354 31.855 38.883C31.4207 37.5391 31.0873 36.1673 30.8115 34.781C30.2358 31.8821 30.1287 28.8996 30.2053 25.9509C30.2793 23.0068 30.4808 20.0178 31.0175 17.1175C31.2906 15.6525 31.6693 14.2099 32.0666 12.775C32.4617 11.3388 32.9096 9.84838 33.1861 8.38532C33.3645 7.44444 32.2953 6.72555 31.5514 7.43536Z" fill="white"/>
<path d="M12.4699 25.7095C12.0565 26.4255 12.5739 27.4786 13.2466 27.8762C13.8502 28.2308 14.7502 28.3039 15.4298 28.2468C16.2572 28.1764 17.1573 28.2172 17.9859 28.1368C19.7232 27.9758 21.5343 28.0469 23.2764 28.072C25.0891 28.0978 26.9109 28.2197 28.7202 28.3098C29.6374 28.3558 30.5616 28.4137 31.4774 28.4729C31.8773 28.4975 32.2825 28.5451 32.6811 28.5827C32.7477 28.5873 33.5578 28.7148 33.2446 28.6279C35.6754 29.2923 36.7101 25.5188 34.2823 24.8653C33.5834 24.6758 32.8176 24.6956 32.0985 24.6345C31.2077 24.5559 30.3172 24.5144 29.4245 24.4686C27.4984 24.3727 25.573 24.3049 23.644 24.3074C21.8858 24.31 20.1302 24.3587 18.3749 24.4738C17.4825 24.5314 16.5994 24.7143 15.7186 24.8693C14.9713 24.9983 14.1908 25.1528 13.5246 25.5441C14.1838 25.7169 14.8418 25.8919 15.4999 26.064C15.4928 26.0523 15.2021 25.8705 15.2021 25.8705C14.6601 24.9479 13.0052 24.7823 12.4699 25.7095Z" fill="white"/>
</svg>
