<svg width="43" height="43" viewBox="0 0 43 43" fill="none" xmlns="http://www.w3.org/2000/svg">
<path d="M4.42025 31.7183C5.26784 31.195 6.24177 30.8339 7.12518 30.3748C9.08622 29.3547 11.0623 28.3647 13.0036 27.3041C18.0599 24.5388 38.3148 13.6347 38.3796 13.6038C38.5649 13.5165 37.3304 14.0779 38.4945 13.553C39.3978 13.1437 39.6174 11.8644 39.1601 11.0696C38.6272 10.1487 37.5804 9.99824 36.678 10.4047C35.8427 10.7818 35.04 11.2903 34.2349 11.7277C32.3362 12.7591 8.59879 25.8823 6.22008 27.3125C5.06231 28.0083 3.81875 28.6919 2.79581 29.5866C1.63049 30.6067 3.12578 32.5187 4.42025 31.7183Z" fill="white"/>
<path d="M28.0417 12.5846C28.6186 12.7978 29.2204 12.7956 29.8306 12.8341C31.0226 12.9073 32.2234 12.8699 33.4194 12.8676C35.1531 12.8667 36.8866 12.8642 38.6201 12.8372C38.1393 12.0056 37.6596 11.1747 37.1782 10.342C35.4779 13.2245 33.7818 16.1086 32.0766 18.9885C30.9955 20.8182 33.838 22.4786 34.9166 20.6551C36.6197 17.7754 38.3308 14.8989 40.036 12.019C40.6772 10.9366 39.8562 9.50805 38.5971 9.52455C36.8615 9.54802 35.1304 9.59338 33.3952 9.6409C32.2449 9.67493 31.0821 9.66483 29.9335 9.76694C29.2925 9.82342 28.6365 9.82889 28.0358 10.0694C26.8138 10.5598 26.7765 12.115 28.0417 12.5846Z" fill="white"/>
<path d="M11.4058 19.3363C11.6038 20.1716 12.045 20.9353 12.3938 21.7216C12.8756 22.8011 13.3923 23.8608 13.9052 24.9281C14.3907 25.936 15.7219 28.6871 15.8964 29.0538C16.0529 29.3819 16.1217 29.7506 15.9539 29.1491C16.611 31.4806 20.2776 30.4803 19.578 28.1591C19.3876 27.5331 19.0142 26.924 18.7191 26.348C18.1921 25.325 17.6302 24.3257 17.0607 23.3282C16.4451 22.2449 15.8276 21.171 15.127 20.1424C14.5783 19.3391 14.0654 18.4736 13.248 17.924C12.2901 17.2791 11.1663 18.3313 11.4058 19.3363Z" fill="white"/>
</svg>
