<svg width="47" height="53" viewBox="0 0 47 53" fill="none" xmlns="http://www.w3.org/2000/svg">
<path d="M14.5172 20.2518C15.4967 19.4098 16.2567 18.1981 17.0638 17.1854C17.5743 16.5443 18.0393 15.883 18.6013 15.2831C18.8393 15.0286 19.3739 14.3626 19.7677 14.5327C21.2257 15.1567 21.3395 16.9938 21.4246 18.3412C21.4861 19.3064 21.6451 20.2645 21.7083 21.2272C21.7729 22.243 21.7129 23.2645 21.6855 24.2811C21.6292 26.3089 21.7142 28.3521 21.7391 30.3793C21.7626 32.244 21.7128 34.1203 21.7894 35.9836C21.8199 36.7004 22.2583 37.3372 22.9695 37.5316C23.7294 37.7411 24.8234 37.2788 24.9458 36.4107C25.2565 34.1836 25.0312 31.8334 25.0035 29.5907C24.9873 28.544 24.9722 27.4965 24.9619 26.4493C24.9428 24.5975 25.0784 22.7363 24.9578 20.8876C24.8903 19.8319 24.7301 18.7759 24.6558 17.7164C24.5769 16.6011 24.4249 15.4711 23.9539 14.45C23.1644 12.7438 21.4514 11.1449 19.4594 11.2894C17.3996 11.4363 16.055 13.454 15.0254 15.0227C14.1664 16.327 12.5523 17.8085 12.681 19.4927C12.754 20.4513 13.7838 20.8803 14.5172 20.2518Z" fill="white"/>
<path d="M24.2341 18.7329C25.3136 17.3413 25.7348 15.5881 27.6385 15.0802C28.2181 14.9241 28.8372 15.1404 29.2522 15.3738C29.7318 15.6419 30.0205 16.0433 30.3188 16.5546C30.9139 17.5721 31.2051 19.0791 31.3276 20.1846C31.5464 22.1475 31.4824 24.1459 31.5039 26.1165C31.5317 28.5114 31.5702 30.9033 31.6289 33.2958C31.6779 35.2952 31.8995 37.4258 33.0222 39.141C34.2695 41.0428 36.4574 41.5763 38.5788 41.032C40.6845 40.4952 42.0431 38.8163 42.9038 36.923C43.6946 35.1809 41.2765 33.6671 40.2894 35.3948C39.6021 36.5937 38.3654 38.1638 36.7714 37.9309C35.1832 37.6947 35.0646 35.1905 34.9948 33.9683C34.7374 29.4504 35.1096 24.8846 34.6965 20.3796C34.4208 17.3795 33.5631 13.7578 30.6062 12.303C28.7611 11.3926 26.5825 11.5419 24.8667 12.6739C23.0908 13.8459 21.7851 16.0377 22.2316 18.2031C22.4015 19.0227 23.6868 19.4383 24.2341 18.7329Z" fill="white"/>
<path d="M37.5434 36.4258C38.3608 37.1348 39.2907 36.7349 40.2368 36.5335C40.6953 36.4397 41.4032 36.0018 41.7881 36.1645C41.5967 36.0517 41.4042 35.9396 41.2117 35.8275C41.1727 35.7438 41.1338 35.6631 41.0947 35.5794C41.1005 35.7069 41.0993 35.8354 41.0944 35.963C41.0847 36.3088 41.1061 36.6552 41.1142 37C41.1338 37.7246 41.0621 38.4404 41.0379 39.161C40.9848 40.7144 43.2342 40.9306 43.6722 39.5184C44.0004 38.4575 43.9177 37.3198 43.81 36.2319C43.707 35.1921 43.6585 34.0361 42.4842 33.6395C41.7221 33.3835 40.9024 33.6197 40.1722 33.875C39.3456 34.1659 38.5017 34.3576 37.7491 34.8167C37.2185 35.1431 37.0306 35.9829 37.5434 36.4258Z" fill="white"/>
<path d="M9.04357 14.9718C9.42733 14.3859 9.73325 13.8117 10.2028 13.3343C10.3887 13.1471 10.6558 12.9482 10.8065 12.892C11.2454 12.7216 11.6415 12.9889 11.0931 12.679C10.9934 12.621 10.4924 11.9907 10.6587 12.2893C10.7501 12.5997 10.8129 12.967 10.8728 13.3295C10.9082 13.5429 11.0032 14.2194 11.0199 14.3469C11.0928 14.9532 11.1485 15.5644 11.1999 16.1734C11.3182 17.5569 11.3915 18.9453 11.4539 20.3334C11.667 25.1477 11.6662 29.8024 11.735 34.6201C11.7355 34.7091 11.7394 34.7238 11.7394 34.7238C11.7379 36.9986 15.0742 36.9985 15.0756 34.7237C15.0794 30.1781 15.1646 25.9151 15.0378 21.4235C14.9629 18.8031 14.8758 16.2468 14.5362 13.6453C14.4244 12.777 14.3182 11.9025 13.9759 11.0855C13.3423 9.56949 12.1589 9.10111 10.5032 9.39069C8.21656 9.79007 6.63506 12.0455 6.42855 14.2558C6.29156 15.7386 8.34255 16.0483 9.04357 14.9718Z" fill="white"/>
</svg>
