<svg width="46" height="46" viewBox="0 0 46 46" fill="none" xmlns="http://www.w3.org/2000/svg">
<path d="M29.7294 30.4162C29.7644 32.4129 28.9832 34.3158 27.4921 35.6771C26.6166 36.4781 25.4291 36.8959 24.3022 37.2C23.3199 37.4639 19.5897 37.4698 18.6749 37.2666C17.524 37.0119 16.3067 36.5754 15.3817 35.8239C13.8054 34.5416 13.0322 32.6078 12.9748 30.6364C12.9097 28.4384 13.8013 26.3425 15.358 24.791C16.1747 23.9761 17.2317 23.4629 18.3162 23.1092C19.1774 22.8276 20.1152 22.6787 20.9811 22.3759C21.0094 22.3795 21.0366 22.3839 21.0642 22.3864C21.1592 22.3962 21.2556 22.3898 21.3517 22.3697C21.4454 22.388 21.5457 22.3963 21.6407 22.3876C21.6674 22.383 21.6935 22.3803 21.7219 22.3762C22.5085 22.6533 23.3581 22.8048 24.1437 23.0349C25.2538 23.3577 26.2867 23.856 27.1617 24.6195C28.8278 26.0732 29.6948 28.2469 29.7294 30.4162ZM36.4354 13.1808C35.5178 12.114 33.6611 12.1329 32.4273 12.5158C30.9571 12.972 29.766 14.0477 28.6934 15.1072C27.6311 16.1578 26.6716 17.1706 25.3543 17.905C24.0942 18.6078 22.7538 19.2062 21.3519 19.546C20.0231 19.2232 18.8227 18.6506 17.5965 18.0361C16.1639 17.3174 15.1254 16.2281 14.0122 15.1079C12.9952 14.0877 11.8699 13.104 10.5002 12.5984C9.22586 12.1271 7.24276 12.0496 6.26958 13.1826C5.64469 13.9083 6.06413 14.9548 7.02842 15.017C7.57648 15.0516 8.08295 14.8115 8.63636 14.8954C9.27168 14.9904 9.77854 15.2043 10.3164 15.5466C11.5073 16.3001 12.4076 17.5447 13.3808 18.5424C14.2635 19.4446 15.2822 20.1343 16.4003 20.6897C15.1929 21.0943 14.0949 21.7205 13.083 22.5172C10.6984 24.3896 9.61965 27.6945 9.6392 30.6377C9.6555 33.4072 10.8023 36.1615 12.8528 38.0384C14.0941 39.1724 15.6427 39.8733 17.2413 40.3436C18.4775 40.7061 23.9844 40.7137 25.1894 40.4167C26.8436 40.0098 28.3655 39.2512 29.6813 38.1836C31.9089 36.3725 32.984 33.4347 33.0658 30.6377C33.1511 27.7295 31.9934 24.6335 29.8145 22.6783C28.7924 21.7612 27.5668 21.1078 26.2686 20.678C27.3875 20.1012 28.3956 19.4607 29.3219 18.5425C30.2725 17.5996 31.0996 16.4908 32.1811 15.6894C32.6878 15.3137 33.2201 15.0649 33.8332 14.9295C34.4724 14.7914 35.0452 15.0581 35.6747 15.0179C36.6411 14.9557 37.0597 13.9073 36.4354 13.1808Z" fill="white"/>
</svg>
