<svg width="51" height="46" viewBox="0 0 51 46" fill="none" xmlns="http://www.w3.org/2000/svg">
<path d="M15.9554 16.1172C16.384 14.9882 17.0397 13.8872 18.0146 13.1399C19.0607 12.3414 19.7202 12.8898 20.35 13.8708C21.5718 15.7679 21.9176 18.3077 22.0537 20.2908C22.2948 23.8464 22.4392 27.5216 22.1933 31.0808C22.1288 32.0166 23.0238 32.7997 23.9127 32.7987C24.8996 32.7988 25.5691 32.0152 25.6323 31.0818C25.7716 29.0591 25.7036 27.0061 25.6657 24.9812C25.6271 22.6987 25.5726 20.4118 25.213 18.1519C24.6972 14.9039 23.5409 10.8588 20.1449 9.58621C18.2812 8.88608 16.5327 10.1307 15.273 11.3445C13.967 12.6012 13.3492 14.3461 13.725 16.1165C13.987 17.3347 15.5844 17.0931 15.9554 16.1172Z" fill="white"/>
<path d="M24.8177 16.8367C25.3407 15.4403 26.1459 13.9283 27.3907 13.0443C27.8622 12.7102 28.4789 12.338 29.0253 12.6583C29.554 12.9666 29.7937 13.9301 29.9542 14.46C30.4764 16.1796 30.5051 18.0712 30.608 19.8502C30.7182 21.7768 30.7362 23.7055 30.8039 25.6337C30.8779 27.7056 31.7631 29.8255 32.8282 31.5675C34.3911 34.1218 36.7821 36.0365 39.6557 36.8965C41.8757 37.5608 42.8187 34.1008 40.6075 33.44C37.9435 32.6409 36.2668 30.7183 35.1392 28.2953C35.051 28.0934 34.9912 27.9357 34.9353 27.7818C34.8431 27.5362 34.7629 27.2912 34.6871 27.0411C34.5613 26.619 34.4615 26.1919 34.3885 25.7556C34.4861 26.3385 34.3988 25.7724 34.3892 25.6344C34.3664 25.2472 34.3791 24.8572 34.3742 24.4711C34.3551 23.2561 34.2954 22.0422 34.2296 20.8308C34.1163 18.7657 33.9926 16.6839 33.6343 14.6432C33.2856 12.6606 32.4071 10.5368 30.5939 9.4881C28.5695 8.31452 26.1824 9.40632 24.6081 10.805C23.1149 12.1327 22.3584 14.1604 22.0946 16.0866C21.8465 17.871 24.1668 18.5748 24.8177 16.8367Z" fill="white"/>
<path d="M33.8212 24.0102C34.4164 23.7072 34.5412 23.1711 34.8785 22.6562C34.8937 22.6326 35.1745 22.4021 35.266 22.321C35.0547 22.5084 35.7385 22.1427 35.4185 22.2597C35.4942 22.2325 36.0952 22.1329 35.7701 22.1625C35.9742 22.145 36.1845 22.1569 36.3878 22.1727C36.0012 22.1436 36.55 22.2278 36.6338 22.2533C36.9361 22.343 36.3796 22.091 36.7614 22.3282C36.7922 22.4109 36.8588 22.5276 36.9232 22.6453C37.0514 22.8899 36.8052 22.2951 36.9631 22.7496C37.0171 22.904 37.0532 23.0603 37.088 23.2159C37.1962 23.6925 37.0933 23.1081 37.1192 23.4232C37.1534 23.8279 37.1283 24.2368 37.0857 24.6386C37.1245 24.2808 37.0374 24.8556 37.0353 24.8698C36.9869 25.119 36.9185 25.3628 36.8496 25.6047C36.7122 26.0935 36.5335 26.5631 36.3201 27.0233C35.7004 28.3607 34.8685 29.6201 33.9546 30.7737C32.2994 32.8727 29.8475 34.1729 27.8328 35.8811C27.0713 36.5253 27.1706 37.8066 27.8322 38.4688C28.5728 39.2074 29.6705 39.1221 30.4194 38.4676C31.609 37.4285 32.9175 36.5274 34.1482 35.5397C35.5627 34.4072 36.6585 33.0985 37.6864 31.6088C39.2948 29.2843 40.7321 26.3282 40.5127 23.4229C40.3655 21.4591 39.4014 19.5583 37.3944 18.9945C36.1597 18.6477 34.8146 18.8522 33.6886 19.4398C33.0184 19.7901 32.4886 20.3957 32.1661 21.0716C31.7108 22.0282 31.5562 22.9227 32.2402 23.8072C32.6109 24.2798 33.3454 24.2529 33.8212 24.0102Z" fill="white"/>
<path d="M10.1022 13.3459C10.7226 12.4232 11.4001 10.9991 12.4879 11.1976C12.0518 11.1183 11.8836 10.8764 11.688 10.6019C11.8178 10.857 11.8974 11.1939 11.9688 11.5261C12.0677 11.9789 12.1604 12.4342 12.2375 12.8929C12.2813 13.1583 12.3224 13.4284 12.3624 13.6978C12.373 13.7701 12.4378 14.2525 12.378 13.7961C12.3994 13.9456 12.4185 14.0966 12.4357 14.2482C12.6022 15.5837 12.7265 16.9257 12.8352 18.2709C13.193 22.6591 13.4355 27.0791 13.5297 31.4813C14.6233 31.3337 15.7188 31.1856 16.8131 31.0369C16.7652 30.6905 16.5418 30.4214 16.3174 30.1702C15.7055 29.4967 14.5749 29.5537 13.9566 30.1713C13.2728 30.8542 13.3718 31.8321 13.9571 32.5303C13.9767 32.5524 13.9945 32.5749 14.0122 32.5975C13.8501 32.2037 13.6861 31.8103 13.5222 31.417C13.7493 33.5835 16.8343 33.6802 16.8725 31.4807C16.9563 26.8502 16.6753 22.1769 16.3221 17.562C16.1362 15.1346 16.0241 12.5449 15.3316 10.2004C15.0934 9.3916 14.7082 8.40542 13.9044 8.00031C11.869 6.96837 9.5511 8.33504 8.4012 10.0067C7.86054 10.7938 7.56052 11.6922 7.48586 12.6375C7.36989 14.1317 9.38413 14.4109 10.1022 13.3459Z" fill="white"/>
</svg>
