<svg width="222" height="222" viewBox="0 0 222 222" fill="none" xmlns="http://www.w3.org/2000/svg">
<circle cx="111" cy="111" r="111" fill="#2A2935"/>
<mask id="mask0_181_25" style="mask-type:alpha" maskUnits="userSpaceOnUse" x="55" y="66" width="113" height="90">
<path fill-rule="evenodd" clip-rule="evenodd" d="M91.8226 66.7606C74.1977 69.9497 59.9621 83.6433 55.9416 101.277C54.5794 107.249 54.7101 116.52 56.2369 122.303C58.5492 131.06 63.596 139.116 70.5939 145.219C75.2807 149.307 79.8605 151.919 85.9012 153.949C90.4653 155.483 91.9986 155.728 98.4178 155.952C106.418 156.23 111.665 155.325 117.47 152.667L120.256 151.391L116.486 150.977C105.641 149.787 94.6797 143.57 88.4413 135.072C85.4779 131.035 82.8212 125.208 81.5805 120.027C80.6525 116.148 80.5051 114.262 80.7491 109.375C81.3365 97.6132 86.0135 87.9893 94.7196 80.6302C100.953 75.3604 110.794 71.3134 117.373 71.3134C118.81 71.3134 119.986 71.0986 119.986 70.8362C119.986 70.0431 112.641 67.5769 107.724 66.7196C102.149 65.7473 97.3532 65.7597 91.8226 66.7606ZM106.219 67.002C113.003 67.9467 120.253 70.7736 115.892 70.7736C113.024 70.7736 105.534 73.0902 101.36 75.2681C98.1322 76.9525 95.8113 78.7498 92.1725 82.381C83.8469 90.6903 80.6147 97.9809 80.165 109.467C79.8302 118 80.7934 122.481 84.5418 129.834C90.2445 141.023 100.455 148.61 113.184 151.118C117.392 151.947 117.461 151.985 115.909 152.643C115.034 153.014 112.057 153.849 109.296 154.499C101.995 156.217 93.6647 155.822 86.5134 153.419C72.1893 148.605 62.675 139.079 57.5088 124.38C56.1197 120.429 56.0301 119.614 56.0301 110.995C56.0301 102.346 56.1165 101.568 57.5348 97.4977C60.0722 90.2152 62.9935 85.6575 68.9673 79.6627C73.5093 75.105 75.1597 73.8428 79.367 71.7124C88.4959 67.09 96.6178 65.6652 106.219 67.002ZM94.4319 69.514C93.8105 70.1349 94.0383 70.7736 94.8816 70.7736C95.327 70.7736 95.6914 70.4091 95.6914 69.9637C95.6914 69.1204 95.0527 68.8926 94.4319 69.514ZM101.36 70.7736C101.177 71.0705 101.42 71.3134 101.9 71.3134C102.381 71.3134 102.623 71.0705 102.44 70.7736C102.256 70.4766 102.013 70.2337 101.9 70.2337C101.787 70.2337 101.544 70.4766 101.36 70.7736ZM86.5134 77.2521C86.5134 77.5491 86.7709 77.792 87.0852 77.792C87.3994 77.792 87.5068 77.5491 87.3232 77.2521C87.1397 76.9552 86.8827 76.7123 86.7515 76.7123C86.6203 76.7123 86.5134 76.9552 86.5134 77.2521ZM75.1759 77.8239C75.1759 78.1381 75.4189 78.2455 75.7158 78.062C76.0127 77.8784 76.2557 77.6214 76.2557 77.4902C76.2557 77.359 76.0127 77.2521 75.7158 77.2521C75.4189 77.2521 75.1759 77.5097 75.1759 77.8239ZM138.418 88.1529C138.371 94.0225 138.55 97.8324 138.882 98.0376C139.519 98.4317 139.536 86.1424 138.905 81.5712C138.609 79.4338 138.473 81.2786 138.418 88.1529ZM80.9197 81.9459C80.2746 82.591 80.5715 83.7307 81.3845 83.7307C81.8299 83.7307 82.1944 83.3809 82.1944 82.9527C82.1944 82.0506 81.424 81.4422 80.9197 81.9459ZM128.213 84.8105C129.746 89.1171 134.327 99.3716 134.447 98.7632C134.628 97.841 129.46 85.407 128.549 84.5718C128.096 84.1567 128.004 84.222 128.213 84.8105ZM149.451 84.743C148.524 86.2428 143.746 98.1072 143.779 98.8269C143.821 99.7452 144.954 97.36 148.108 89.7077C149.262 86.9085 150.112 84.5233 149.997 84.4083C149.882 84.2927 149.636 84.4439 149.451 84.743ZM66.831 85.853C66.4315 86.4992 67.447 87.139 68.1661 86.6947C68.7702 86.3216 68.3734 85.3504 67.6176 85.3504C67.3557 85.3504 67.0016 85.5766 66.831 85.853ZM71.3967 87.2718C71.3967 87.7345 71.6435 87.9607 71.9453 87.7744C72.2471 87.5876 72.3545 87.2092 72.1834 86.9327C71.7207 86.1839 71.3967 86.3232 71.3967 87.2718ZM121.606 92.1226C121.606 92.4196 123.671 94.7168 126.195 97.2277C128.719 99.7387 130.784 101.55 130.784 101.253C130.784 100.956 128.719 98.659 126.195 96.148C123.671 93.637 121.606 91.8257 121.606 92.1226ZM151.839 96.4179C149.346 98.9235 147.428 101.095 147.577 101.244C147.725 101.392 149.886 99.4634 152.379 96.9578C154.872 94.4522 156.79 92.2803 156.641 92.1318C156.493 91.9833 154.332 93.9123 151.839 96.4179ZM111.493 98.8965C114.134 100.434 126.621 105.904 127.115 105.739C127.712 105.54 112.011 98.2719 111.078 98.3151C110.781 98.3291 110.968 98.5904 111.493 98.8965ZM158.723 101.916C154.342 103.889 150.759 105.694 150.759 105.927C150.759 106.159 151.428 106.106 152.244 105.808C154.724 104.904 167.804 98.4063 167.226 98.3663C166.929 98.3458 163.103 99.9434 158.723 101.916ZM73.0164 99.3873C73.0164 99.6842 73.3808 99.9271 73.8262 99.9271C74.2716 99.9271 74.636 99.6842 74.636 99.3873C74.636 99.0903 74.2716 98.8474 73.8262 98.8474C73.3808 98.8474 73.0164 99.0903 73.0164 99.3873ZM134.654 102.165C128.249 105.336 127.339 114.295 132.944 119.011C138.941 124.057 148.181 120.417 149.446 112.51C149.896 109.694 148.975 106.871 146.797 104.389C143.714 100.879 138.998 100.015 134.654 102.165ZM141.7 102.11C147.709 103.78 150.419 110.496 147.258 115.889C145.728 118.499 142.347 120.45 139.386 120.431C133.475 120.393 128.795 114.485 130.287 108.944C131.02 106.224 133.742 103.316 136.452 102.358C139.095 101.423 139.206 101.418 141.7 102.11ZM59.7893 103.706C59.6057 104.003 59.8487 104.246 60.3292 104.246C60.8097 104.246 61.0526 104.003 60.8691 103.706C60.6855 103.409 60.4426 103.166 60.3292 103.166C60.2158 103.166 59.9729 103.409 59.7893 103.706ZM62.2188 106.406C62.2188 106.703 62.4617 106.946 62.7586 106.946C63.0556 106.946 63.2985 106.703 63.2985 106.406C63.2985 106.109 63.0556 105.866 62.7586 105.866C62.4617 105.866 62.2188 106.109 62.2188 106.406ZM136.222 108.368C134.345 110.754 134.806 113.504 137.301 114.794C139.484 115.923 140.899 115.775 142.415 114.258C145.267 111.407 143.361 106.946 139.291 106.946C137.827 106.946 137.061 107.3 136.222 108.368ZM142.121 108.565C143.69 110.134 143.519 112.556 141.739 113.955C140.03 115.3 138.045 115.063 136.587 113.342C135.346 111.875 135.395 110.646 136.762 108.908C138.13 107.167 140.567 107.011 142.121 108.565ZM70.317 109.105C70.317 109.402 70.5745 109.645 70.8887 109.645C71.2029 109.645 71.3104 109.402 71.1268 109.105C70.9432 108.808 70.6863 108.565 70.5551 108.565C70.4239 108.565 70.317 108.808 70.317 109.105ZM115.397 110.743C120.664 111.283 126.723 111.272 124.575 110.725C123.684 110.498 120.404 110.322 117.287 110.334C111.787 110.354 111.73 110.366 115.397 110.743ZM154.943 110.582C153.533 110.693 152.379 110.964 152.379 111.185C152.379 111.627 157.732 111.412 163.177 110.749L166.686 110.321L162.097 110.351C159.573 110.366 156.354 110.47 154.943 110.582ZM59.7947 112.336C59.3968 112.98 59.9021 113.964 60.631 113.964C61.288 113.964 61.2923 112.503 60.6364 112.098C60.36 111.927 59.9815 112.034 59.7947 112.336ZM76.0089 112.307C75.6402 112.904 76.4916 113.548 76.9905 113.05C77.5033 112.536 77.4078 111.805 76.8274 111.805C76.5478 111.805 76.1796 112.031 76.0089 112.307ZM119.223 120.16C111.789 123.631 110.692 124.222 111.683 124.222C112.402 124.222 126.62 117.773 127.247 117.162C128.369 116.072 126.431 116.796 119.223 120.16ZM151.596 117.134C152.547 118.005 167.029 124.328 167.347 124.011C167.52 123.837 166.349 123.113 164.744 122.401C163.14 121.689 159.667 120.107 157.027 118.885C152.39 116.739 150.5 116.129 151.596 117.134ZM69.3609 120.004C69.6945 121.005 70.8569 121.171 70.8569 120.218C70.8569 119.748 70.4719 119.363 70.0022 119.363C69.532 119.363 69.2432 119.651 69.3609 120.004ZM126.385 125.58C120.217 131.963 120.313 132.671 126.516 126.537C129.282 123.802 131.399 121.418 131.22 121.239C131.042 121.06 128.866 123.014 126.385 125.58ZM148.626 122.467C151.542 125.812 156.427 130.7 156.854 130.7C157.105 130.7 155.294 128.514 152.83 125.841C150.365 123.169 148.12 120.983 147.84 120.983C147.56 120.983 147.914 121.651 148.626 122.467ZM143.741 123.361C143.741 124.208 149.84 138.279 150.096 138.022C150.402 137.717 144.97 124.193 144.238 123.439C143.965 123.157 143.741 123.122 143.741 123.361ZM131.385 130.721C129.786 134.588 128.6 137.874 128.75 138.024C128.899 138.174 130.271 135.389 131.796 131.834C135.341 123.575 135.302 123.681 134.756 123.686C134.501 123.689 132.984 126.854 131.385 130.721ZM138.783 133.805C138.689 138.779 138.794 143.079 139.016 143.361C139.239 143.643 139.422 139.573 139.422 134.318C139.422 129.062 139.317 124.762 139.188 124.762C139.06 124.762 138.878 128.831 138.783 133.805ZM77.0633 125.845C76.8782 126.144 77.1173 126.539 77.5946 126.722C78.6279 127.118 79.204 126.682 78.7073 125.878C78.2592 125.152 77.5006 125.137 77.0633 125.845ZM61.9321 127.488C61.4192 128.318 62.1216 128.854 62.8148 128.161C63.2024 127.773 63.2116 127.471 62.8429 127.244C62.5405 127.057 62.1308 127.167 61.9321 127.488ZM75.4459 132.32C75.6294 132.617 75.8864 132.86 76.0176 132.86C76.1488 132.86 76.2557 132.617 76.2557 132.32C76.2557 132.023 75.9982 131.78 75.6839 131.78C75.3697 131.78 75.2623 132.023 75.4459 132.32ZM78.6851 133.4C78.8687 133.697 79.1257 133.94 79.2569 133.94C79.3881 133.94 79.495 133.697 79.495 133.4C79.495 133.103 79.2374 132.86 78.9232 132.86C78.609 132.86 78.5016 133.103 78.6851 133.4ZM71.1101 138.826C70.5972 139.656 71.2996 140.191 71.9928 139.498C72.3804 139.111 72.3896 138.809 72.0208 138.581C71.7185 138.394 71.3087 138.504 71.1101 138.826ZM83.3778 139.919C83.4841 140.238 83.8016 140.499 84.084 140.499C84.3663 140.499 84.6838 140.238 84.7901 139.919C84.8965 139.6 84.579 139.338 84.084 139.338C83.5889 139.338 83.2714 139.6 83.3778 139.919ZM88.1331 140.418C88.1331 140.715 88.376 140.958 88.6729 140.958C88.9699 140.958 89.2128 140.715 89.2128 140.418C89.2128 140.121 88.9699 139.878 88.6729 139.878C88.376 139.878 88.1331 140.121 88.1331 140.418ZM80.0348 143.118C80.0348 143.415 80.2778 143.658 80.5747 143.658C80.8717 143.658 81.1146 143.415 81.1146 143.118C81.1146 142.821 80.8717 142.578 80.5747 142.578C80.2778 142.578 80.0348 142.821 80.0348 143.118ZM84.6524 150.09C84.4786 150.371 84.5666 150.743 84.8479 150.917C85.1292 151.091 85.5011 151.003 85.675 150.722C85.8488 150.441 85.7608 150.069 85.4795 149.895C85.1983 149.721 84.8263 149.809 84.6524 150.09ZM100.01 150.676C100.01 150.973 100.253 151.216 100.55 151.216C100.847 151.216 101.09 150.973 101.09 150.676C101.09 150.379 100.847 150.136 100.55 150.136C100.253 150.136 100.01 150.379 100.01 150.676ZM109.511 152.211C109.324 152.514 109.434 152.924 109.755 153.122C110.586 153.635 111.121 152.933 110.428 152.239C110.04 151.852 109.739 151.843 109.511 152.211Z" fill="white"/>
</mask>
<g mask="url(#mask0_181_25)">
<rect x="108.448" y="77.8774" width="77.203" height="65.8655" rx="32.9328" fill="#CCB383"/>
<rect x="85.2334" y="48.7238" width="35.6322" height="29.1536" fill="white"/>
<rect x="55" y="60.6012" width="43.7304" height="50.209" fill="white"/>
<rect x="51.2208" y="104.332" width="49.6691" height="53.9881" fill="white"/>
<rect x="98.7303" y="143.743" width="24.8345" height="18.8958" fill="white"/>
</g>
</svg>
